<?xml version="1.0" encoding="UTF-8"?>
<svg id="Layer_1" data-name="Layer 1" xmlns="http://www.w3.org/2000/svg" viewBox="0 0 266.99 266.99">
  <defs>
    <style>
      .cls-1 {
        fill: #fff;
      }

      .cls-2 {
        fill: #63944c;
      }
    </style>
  </defs>
  <rect class="cls-1" width="266.99" height="266.99"/>
  <g>
    <g>
      <path class="cls-1" d="M167.15,115.71s-.03,0-.06.03c-.03,0-.06,0-.09-.03h.15Z"/>
      <path class="cls-2" d="M222.54,136.47c-14.24,1.61-32.14,13.38-53.52,12.37-11.89-.54-23.62-3.76-34.45-9.6-1-.54-1.99-1.1-2.97-1.67.22-.16.44-.34.66-.5.04-.04.08-.06.12-.1.92-.62,1.83-1.21,2.77-1.77,11.43-7.11,24.2-11.05,37.02-11.65,20.87-.96,36.82,11.79,50.35,12.77.14,0,.14.14.02.16Z"/>
      <path class="cls-2" d="M131.42,173.98h-3.96l-.32-2.03c-.02-.06-.02-.1-.04-.16-1.04-4.58-2.33-8.42-3.9-11.65-7.93-16.45-22.15-16.83-37.04-17.21-20.65-.52-41.98-1.06-41.79-48.12v-1.57l1.61-.1c1.99-.14,4.48-.18,6.69-.08,35.33,1.63,59.15,24.84,70.92,52.12.24.52.46,1.06.66,1.59,1.79,4.26,3.27,8.64,4.42,13.03.06.6.16,1.21.28,1.83.34,2.13,1.02,4.56,1.63,6.79.3,1.63.56,3.29.76,4.92.02.22.06.42.08.64Z"/>
    </g>
    <path class="cls-2" d="M146.54,135.51s-6.28,7.61-11.97,3.72c-4.16-2.84-8.38,9.36-5.64,20.59.14.59,2.22,11.87,2.42,13.5-.02.12-.04.24-.06.36l-3.86-.94c-.04.18-.06-.2-.18-.54-.02-.12-.06-.26-.14-.44-1.04-4.58-2.33-8.42-3.9-11.65-.8-4.48-.66-9.12,1.06-13.36.42-1.06.94-2.09,1.55-3.09,1.13-1.81,3.27-4.12,5.79-6.11.22-.16.44-.34.66-.5.04-.04.08-.06.12-.1.9-.66,1.81-1.25,2.77-1.77.44-.26.88-.5,1.34-.7.02-.02.06-.02.08-.04,3.7-1.73,7.49-2.01,9.98,1.06Z"/>
  </g>
</svg>