<?xml version="1.0" encoding="UTF-8"?>
<svg xmlns="http://www.w3.org/2000/svg" viewBox="0 0 400 400">
  <!-- white background -->
  <rect width="400" height="400" fill="#ffffff"/>
  <!-- Planta Smart Homes logo — centered, scaled to fit with 20px padding -->
  <g transform="translate(20, 60) scale(0.9449)">
    <defs>
      <style>
        .ic-1 { fill: #4a3521; }
        .ic-2 { fill: #28351c; }
        .ic-3 { fill: #61805c; }
        .ic-4 { fill: #6a8d55; }
      </style>
    </defs>

    <!-- plant illustration -->
    <g>
      <g>
        <path class="ic-4" d="M279.54,94.14c-14.24,1.61-32.14,13.38-53.52,12.37-11.89-.54-23.62-3.76-34.45-9.6-1-.54-1.99-1.1-2.97-1.67.22-.16.44-.34.66-.5.04-.04.08-.06.12-.1.92-.62,1.83-1.21,2.77-1.77,11.43-7.11,24.2-11.05,37.02-11.65,20.87-.96,36.82,11.79,50.35,12.77.14,0,.14.14.02.16Z"/>
        <path class="ic-4" d="M188.42,131.65h-3.96l-.32-2.03c-.02-.06-.02-.1-.04-.16-1.04-4.58-2.33-8.42-3.9-11.65-7.93-16.45-22.15-16.83-37.04-17.21-20.65-.52-41.98-1.06-41.79-48.12v-1.57l1.61-.1c1.99-.14,4.48-.18,6.69-.08,35.33,1.63,59.15,24.84,70.92,52.12.24.52.46,1.06.66,1.59,1.79,4.26,3.27,8.64,4.42,13.03.06.6.16,1.21.28,1.83.34,2.13,2.19,10.08,2.39,11.71.02.22.06.42.08.64Z"/>
      </g>
      <path class="ic-4" d="M193.48,92.17s.06-.02.08-.04c3.7-1.73,7.49-2.01,9.98,1.06,0,0-6.28,7.61-11.97,3.72-4.16-2.84-8.38,9.36-5.64,20.59.14.59,2.38,13.74,2.36,13.86l-3.86-.94c-.04.18-.06-.2-.18-.54-.02-.12-.06-.26-.14-.44-1.04-4.58-2.33-8.42-3.9-11.65-.8-4.48-.66-9.12,1.06-13.36.42-1.06.94-2.09,1.55-3.09,1.13-1.81,3.27-4.12,5.79-6.11.22-.16.44-.34.66-.5.04-.04.08-.06.12-.1"/>
    </g>

    <!-- "planta" wordmark -->
    <g>
      <path class="ic-2" d="M109.94,172.23c0-3.98-.13-7.18-.26-10.13h5.07l.26,5.32h.13c2.31-3.78,5.96-6.03,11.03-6.03,7.5,0,13.14,6.35,13.14,15.77,0,11.16-6.8,16.67-14.11,16.67-4.1,0-7.69-1.79-9.55-4.87h-.13v16.86h-5.58v-33.6ZM115.52,180.5c0,.83.13,1.6.26,2.31,1.03,3.91,4.42,6.61,8.46,6.61,5.96,0,9.43-4.87,9.43-11.99,0-6.22-3.27-11.54-9.23-11.54-3.85,0-7.44,2.76-8.53,6.99-.19.71-.38,1.54-.38,2.31v5.32Z"/>
      <path class="ic-2" d="M146.42,147.61h5.64v45.52h-5.64v-45.52Z"/>
      <path class="ic-2" d="M178.73,193.13l-.45-3.91h-.19c-1.73,2.44-5.07,4.62-9.49,4.62-6.28,0-9.49-4.42-9.49-8.91,0-7.5,6.67-11.61,18.66-11.54v-.64c0-2.56-.71-7.18-7.05-7.18-2.89,0-5.9.9-8.08,2.31l-1.28-3.72c2.56-1.67,6.28-2.76,10.19-2.76,9.49,0,11.8,6.47,11.8,12.7v11.61c0,2.69.13,5.32.51,7.44h-5.13ZM177.9,177.29c-6.16-.13-13.14.96-13.14,6.99,0,3.66,2.44,5.39,5.32,5.39,4.04,0,6.6-2.56,7.5-5.19.19-.58.32-1.22.32-1.79v-5.39Z"/>
      <path class="ic-2" d="M192.45,170.5c0-3.21-.06-5.83-.26-8.4h5l.32,5.13h.13c1.54-2.95,5.13-5.83,10.26-5.83,4.3,0,10.96,2.56,10.96,13.21v18.53h-5.64v-17.89c0-5-1.86-9.17-7.18-9.17-3.72,0-6.6,2.63-7.57,5.77-.26.71-.38,1.67-.38,2.63v18.66h-5.64v-22.63Z"/>
      <path class="ic-2" d="M234.57,153.19v8.91h8.08v4.29h-8.08v16.74c0,3.85,1.09,6.03,4.23,6.03,1.47,0,2.56-.19,3.27-.38l.26,4.23c-1.09.45-2.82.77-5,.77-2.63,0-4.75-.83-6.09-2.37-1.6-1.67-2.18-4.42-2.18-8.08v-16.93h-4.81v-4.29h4.81v-7.44l5.51-1.47Z"/>
      <path class="ic-2" d="M266.18,193.13l-.45-3.91h-.19c-1.73,2.44-5.07,4.62-9.49,4.62-6.28,0-9.49-4.42-9.49-8.91,0-7.5,6.67-11.61,18.66-11.54v-.64c0-2.56-.71-7.18-7.05-7.18-2.89,0-5.9.9-8.08,2.31l-1.28-3.72c2.56-1.67,6.28-2.76,10.19-2.76,9.49,0,11.8,6.47,11.8,12.7v11.61c0,2.69.13,5.32.51,7.44h-5.13ZM265.34,177.29c-6.16-.13-13.14.96-13.14,6.99,0,3.66,2.44,5.39,5.32,5.39,4.04,0,6.6-2.56,7.5-5.19.19-.58.32-1.22.32-1.79v-5.39Z"/>
    </g>

    <!-- "Smart" wordmark -->
    <g>
      <path class="ic-3" d="M109.36,227.46c.86.52,2.5,1.08,3.85,1.08,1.66,0,2.4-.68,2.4-1.66s-.62-1.54-2.47-2.19c-2.93-1.02-4.16-2.62-4.13-4.38,0-2.65,2.19-4.72,5.67-4.72,1.66,0,3.11.43,3.97.89l-.74,2.68c-.65-.37-1.85-.86-3.17-.86s-2.1.65-2.1,1.57.71,1.42,2.62,2.1c2.71.99,3.97,2.37,4.01,4.59,0,2.71-2.13,4.68-6.1,4.68-1.82,0-3.45-.43-4.56-1.05l.74-2.74Z"/>
      <path class="ic-3" d="M122.4,220.41c0-1.73-.03-3.17-.12-4.47h3.27l.15,2.22h.09c.74-1.17,2.1-2.56,4.62-2.56,1.97,0,3.51,1.11,4.16,2.77h.06c.52-.83,1.14-1.45,1.85-1.88.83-.59,1.79-.89,3.02-.89,2.5,0,5.02,1.69,5.02,6.5v8.84h-3.7v-8.29c0-2.5-.86-3.97-2.68-3.97-1.29,0-2.25.92-2.65,2-.09.37-.18.83-.18,1.26v9h-3.7v-8.69c0-2.1-.83-3.57-2.59-3.57-1.42,0-2.37,1.11-2.71,2.16-.15.37-.22.8-.22,1.23v8.87h-3.7v-10.54Z"/>
      <path class="ic-3" d="M156.97,230.95l-.25-1.66h-.09c-.92,1.17-2.5,2-4.44,2-3.02,0-4.71-2.19-4.71-4.47,0-3.79,3.36-5.7,8.9-5.67v-.25c0-.99-.4-2.62-3.05-2.62-1.48,0-3.02.46-4.04,1.11l-.74-2.47c1.11-.68,3.05-1.32,5.42-1.32,4.81,0,6.19,3.05,6.19,6.32v5.42c0,1.36.06,2.68.22,3.61h-3.42ZM156.48,223.61c-2.68-.06-5.24.52-5.24,2.8,0,1.48.96,2.16,2.16,2.16,1.51,0,2.62-.99,2.96-2.07.09-.28.12-.58.12-.83v-2.06Z"/>
      <path class="ic-3" d="M164.18,220.78c0-2.03-.03-3.48-.12-4.84h3.3l.12,2.87h.12c.74-2.13,2.5-3.2,4.1-3.2.37,0,.59.03.89.09v3.57c-.31-.06-.65-.12-1.11-.12-1.82,0-3.05,1.17-3.39,2.87-.06.34-.12.74-.12,1.17v7.77h-3.79v-10.17Z"/>
      <path class="ic-3" d="M180.2,211.66v4.28h3.61v2.84h-3.61v6.62c0,1.82.49,2.77,1.94,2.77.65,0,1.14-.09,1.48-.19l.06,2.9c-.55.22-1.54.37-2.74.37-1.39,0-2.56-.46-3.27-1.23-.8-.86-1.17-2.22-1.17-4.19v-7.06h-2.16v-2.84h2.16v-3.39l3.7-.89Z"/>
    </g>

    <!-- "homes" wordmark -->
    <g>
      <path class="ic-1" d="M192.62,210.78h3.48v8.14h.06c.42-.64.98-1.18,1.71-1.57.67-.39,1.49-.62,2.36-.62,2.33,0,4.77,1.54,4.77,5.92v8.05h-3.45v-7.66c0-1.99-.73-3.48-2.64-3.48-1.35,0-2.3.9-2.67,1.94-.11.28-.14.64-.14,1.04v8.16h-3.48v-19.92Z"/>
      <path class="ic-1" d="M221.66,223.74c0,5.02-3.53,7.27-7.01,7.27-3.87,0-6.85-2.67-6.85-7.04s2.95-7.24,7.07-7.24,6.79,2.86,6.79,7.01ZM211.36,223.88c0,2.64,1.29,4.63,3.39,4.63,1.96,0,3.34-1.94,3.34-4.69,0-2.13-.95-4.57-3.31-4.57s-3.42,2.36-3.42,4.63Z"/>
      <path class="ic-1" d="M224.5,221.11c0-1.57-.03-2.89-.11-4.07h2.97l.14,2.02h.08c.67-1.07,1.91-2.33,4.21-2.33,1.8,0,3.2,1.01,3.79,2.52h.06c.48-.76,1.04-1.32,1.68-1.71.76-.53,1.63-.81,2.75-.81,2.27,0,4.57,1.54,4.57,5.92v8.05h-3.37v-7.55c0-2.27-.79-3.62-2.44-3.62-1.18,0-2.05.84-2.41,1.82-.08.34-.17.76-.17,1.15v8.19h-3.37v-7.91c0-1.91-.76-3.25-2.36-3.25-1.29,0-2.16,1.01-2.47,1.96-.14.34-.2.73-.2,1.12v8.08h-3.37v-9.59Z"/>
      <path class="ic-1" d="M250.73,224.84c.08,2.47,2.02,3.54,4.21,3.54,1.6,0,2.75-.22,3.79-.62l.5,2.38c-1.18.48-2.81.84-4.77.84-4.43,0-7.04-2.72-7.04-6.9,0-3.79,2.3-7.35,6.68-7.35s5.89,3.65,5.89,6.65c0,.65-.06,1.15-.11,1.46h-9.15ZM256.73,222.42c.03-1.26-.53-3.34-2.83-3.34-2.13,0-3.03,1.94-3.17,3.34h6Z"/>
      <path class="ic-1" d="M262.59,227.53c.79.48,2.27.98,3.51.98,1.52,0,2.19-.62,2.19-1.52s-.56-1.4-2.24-1.99c-2.67-.93-3.79-2.38-3.76-3.98,0-2.41,1.99-4.29,5.16-4.29,1.52,0,2.83.39,3.62.81l-.67,2.44c-.59-.34-1.68-.79-2.89-.79s-1.91.59-1.91,1.43.65,1.29,2.38,1.91c2.47.9,3.62,2.16,3.65,4.18,0,2.47-1.94,4.26-5.56,4.26-1.66,0-3.14-.39-4.15-.95l.67-2.5Z"/>
    </g>
  </g>
</svg>
